<?xml version="1.0" encoding="UTF-8"?>
<svg width="600" height="400" viewBox="0 0 600 400" fill="none" xmlns="http://www.w3.org/2000/svg">
  <!-- Background -->
  <rect width="600" height="400" fill="#F8FAFC"/>
  
  <!-- Neural Network -->
  <g transform="translate(100, 100)">
    <!-- Input Layer -->
    <circle cx="0" cy="0" r="20" fill="#0EA5E9" opacity="0.2"/>
    <circle cx="0" cy="60" r="20" fill="#0EA5E9" opacity="0.2"/>
    <circle cx="0" cy="120" r="20" fill="#0EA5E9" opacity="0.2"/>
    
    <!-- Hidden Layer -->
    <circle cx="120" cy="30" r="20" fill="#0EA5E9" opacity="0.3"/>
    <circle cx="120" cy="90" r="20" fill="#0EA5E9" opacity="0.3"/>
    
    <!-- Output Layer -->
    <circle cx="240" cy="60" r="20" fill="#0EA5E9" opacity="0.4"/>
    
    <!-- Connections -->
    <path d="M0 0 L120 30" stroke="#0EA5E9" stroke-width="2" opacity="0.2"/>
    <path d="M0 60 L120 30" stroke="#0EA5E9" stroke-width="2" opacity="0.2"/>
    <path d="M0 120 L120 30" stroke="#0EA5E9" stroke-width="2" opacity="0.2"/>
    <path d="M0 0 L120 90" stroke="#0EA5E9" stroke-width="2" opacity="0.2"/>
    <path d="M0 60 L120 90" stroke="#0EA5E9" stroke-width="2" opacity="0.2"/>
    <path d="M0 120 L120 90" stroke="#0EA5E9" stroke-width="2" opacity="0.2"/>
    <path d="M120 30 L240 60" stroke="#0EA5E9" stroke-width="2" opacity="0.3"/>
    <path d="M120 90 L240 60" stroke="#0EA5E9" stroke-width="2" opacity="0.3"/>
  </g>
  
  <!-- Decorative Elements -->
  <circle cx="500" cy="300" r="30" fill="#0EA5E9" opacity="0.1"/>
  <circle cx="400" cy="350" r="20" fill="#0EA5E9" opacity="0.1"/>
</svg> 