<?xml version="1.0" encoding="UTF-8"?>
<svg width="120" height="40" viewBox="0 0 120 40" fill="none" xmlns="http://www.w3.org/2000/svg">
  <path d="M20 12C14.477 12 10 16.477 10 22C10 27.523 14.477 32 20 32C25.523 32 30 27.523 30 22C30 16.477 25.523 12 20 12ZM20 28C16.686 28 14 25.314 14 22C14 18.686 16.686 16 20 16C23.314 16 26 18.686 26 22C26 25.314 23.314 28 20 28Z" fill="#0EA5E9"/>
  <path d="M40 16H48V28H40V16Z" fill="#0EA5E9"/>
  <path d="M60 16H68V28H60V16Z" fill="#0EA5E9"/>
  <path d="M80 16H88V28H80V16Z" fill="#0EA5E9"/>
  <path d="M100 16H108V28H100V16Z" fill="#0EA5E9"/>
</svg> 